<svg fill="#22543d" height="100%" width="100%" xmlns="http://www.w3.org/2000/svg" viewBox="0 0 24 24">
  <path d="M23.147 2.439l-1.018-1.017A4.887 4.887 0 0018.695 0h-.618a6.678 6.678 0 00-4.753 1.969L1.146 14.146a.5.5 0 000 .708l.646.646-1.646 1.646A.5.5 0 000 17.5v6a.5.5 0 00.854.354L5.5 19.208l.646.646a.498.498 0 00.708 0l7.939-7.939A3.101 3.101 0 0117 11.001a4.091 4.091 0 002.914-1.207l3.232-3.232c.551-.55.854-1.282.854-2.061s-.302-1.512-.853-2.062zM6.355 17.354a.498.498 0 01-.708 0l-2-2a.5.5 0 010-.707L5.794 12.5l2.707 2.707-2.146 2.147zm10.5-10.5L10.708 13l-2.707-2.707 6.146-6.146c.725-.724 1.982-.724 2.707 0a1.908 1.908 0 01.001 2.707zM20.501 6c-.827 0-1.5-.673-1.5-1.5s.673-1.5 1.5-1.5 1.5.673 1.5 1.5-.673 1.5-1.5 1.5z"/>
</svg>
